<mxfile host="app.diagrams.net" modified="2024-05-07T17:00:44.008Z" agent="Mozilla/5.0 (Windows NT 10.0; Win64; x64) AppleWebKit/537.36 (KHTML, like Gecko) Chrome/124.0.0.0 Safari/537.36" etag="WtovZbB7EgGdjL1iEyKm" version="24.3.1" type="github">
  <diagram name="Page-1" id="5f0bae14-7c28-e335-631c-24af17079c00">
    <mxGraphModel dx="1841" dy="379" grid="1" gridSize="10" guides="1" tooltips="1" connect="1" arrows="1" fold="1" page="1" pageScale="1" pageWidth="1100" pageHeight="850" background="none" math="0" shadow="0">
      <root>
        <mxCell id="0" />
        <mxCell id="1" parent="0" />
        <mxCell id="qqnhKsSnMTDeRwUh5UgO-30" value="&lt;p style=&quot;line-height: 100%;&quot;&gt;&lt;br&gt;&lt;/p&gt;" style="html=1;dropTarget=0;whiteSpace=wrap;fillColor=none;movable=0;resizable=0;rotatable=0;deletable=0;editable=0;locked=1;connectable=0;" vertex="1" parent="1">
          <mxGeometry x="-10" y="35" width="460" height="390" as="geometry" />
        </mxCell>
        <mxCell id="qqnhKsSnMTDeRwUh5UgO-31" value="" style="shape=module;jettyWidth=8;jettyHeight=4;" vertex="1" parent="qqnhKsSnMTDeRwUh5UgO-30">
          <mxGeometry x="1" width="20" height="20" relative="1" as="geometry">
            <mxPoint x="-27" y="7" as="offset" />
          </mxGeometry>
        </mxCell>
        <mxCell id="39150e848f15840c-2" value="Block" style="verticalAlign=top;align=left;spacingTop=8;spacingLeft=2;spacingRight=12;shape=cube;size=10;direction=south;fontStyle=4;html=1;rounded=0;shadow=0;comic=0;labelBackgroundColor=none;strokeWidth=1;fontFamily=Verdana;fontSize=12" parent="1" vertex="1">
          <mxGeometry x="760" y="780" width="330" height="220" as="geometry" />
        </mxCell>
        <mxCell id="39150e848f15840c-3" value="Block" style="verticalAlign=top;align=left;spacingTop=8;spacingLeft=2;spacingRight=12;shape=cube;size=10;direction=south;fontStyle=4;html=1;rounded=0;shadow=0;comic=0;labelBackgroundColor=none;strokeWidth=1;fontFamily=Verdana;fontSize=12" parent="1" vertex="1">
          <mxGeometry x="340" y="790" width="260" height="150" as="geometry" />
        </mxCell>
        <mxCell id="39150e848f15840c-5" value="Sensor&amp;nbsp;&lt;span style=&quot;background-color: initial;&quot;&gt;calidad&lt;/span&gt;&lt;div&gt;agua&lt;/div&gt;" style="shape=component;align=left;spacingLeft=36;rounded=0;shadow=0;comic=0;labelBackgroundColor=none;strokeWidth=1;fontFamily=Verdana;fontSize=12;html=1;" parent="1" vertex="1">
          <mxGeometry x="10" y="100" width="140" height="60" as="geometry" />
        </mxCell>
        <mxCell id="39150e848f15840c-7" value="Module" style="shape=component;align=left;spacingLeft=36;rounded=0;shadow=0;comic=0;labelBackgroundColor=none;strokeWidth=1;fontFamily=Verdana;fontSize=12;html=1;" parent="1" vertex="1">
          <mxGeometry x="790" y="845" width="120" height="60" as="geometry" />
        </mxCell>
        <mxCell id="39150e848f15840c-8" value="&amp;laquo;interface&amp;raquo;&lt;br&gt;&lt;b&gt;Name&lt;/b&gt;" style="html=1;rounded=0;shadow=0;comic=0;labelBackgroundColor=none;strokeWidth=1;fontFamily=Verdana;fontSize=12;align=center;" parent="1" vertex="1">
          <mxGeometry x="950" y="850" width="110" height="50" as="geometry" />
        </mxCell>
        <mxCell id="39150e848f15840c-9" value="" style="ellipse;whiteSpace=wrap;html=1;rounded=0;shadow=0;comic=0;labelBackgroundColor=none;strokeWidth=1;fontFamily=Verdana;fontSize=12;align=center;" parent="1" vertex="1">
          <mxGeometry x="850" y="940" width="20" height="20" as="geometry" />
        </mxCell>
        <mxCell id="39150e848f15840c-10" value="Module" style="shape=component;align=left;spacingLeft=36;rounded=0;shadow=0;comic=0;labelBackgroundColor=none;strokeWidth=1;fontFamily=Verdana;fontSize=12;html=1;" parent="1" vertex="1">
          <mxGeometry x="410" y="840" width="120" height="60" as="geometry" />
        </mxCell>
        <mxCell id="39150e848f15840c-12" style="edgeStyle=none;rounded=0;html=1;dashed=1;labelBackgroundColor=none;startArrow=none;startFill=0;startSize=8;endArrow=open;endFill=0;endSize=16;fontFamily=Verdana;fontSize=12;" parent="1" source="39150e848f15840c-3" target="39150e848f15840c-9" edge="1">
          <mxGeometry relative="1" as="geometry" />
        </mxCell>
        <mxCell id="39150e848f15840c-13" style="edgeStyle=elbowEdgeStyle;rounded=0;html=1;labelBackgroundColor=none;startArrow=none;startFill=0;startSize=8;endArrow=none;endFill=0;endSize=16;fontFamily=Verdana;fontSize=12;" parent="1" source="39150e848f15840c-9" target="39150e848f15840c-7" edge="1">
          <mxGeometry relative="1" as="geometry" />
        </mxCell>
        <mxCell id="39150e848f15840c-16" style="edgeStyle=orthogonalEdgeStyle;rounded=0;html=1;dashed=1;labelBackgroundColor=none;startArrow=none;startFill=0;startSize=8;endArrow=open;endFill=0;endSize=16;fontFamily=Verdana;fontSize=12;" parent="1" source="39150e848f15840c-7" target="39150e848f15840c-8" edge="1">
          <mxGeometry relative="1" as="geometry" />
        </mxCell>
        <mxCell id="39150e848f15840c-17" style="edgeStyle=orthogonalEdgeStyle;rounded=0;html=1;labelBackgroundColor=none;startArrow=none;startFill=0;startSize=8;endArrow=none;endFill=0;endSize=16;fontFamily=Verdana;fontSize=12;" parent="1" source="39150e848f15840c-3" target="39150e848f15840c-2" edge="1">
          <mxGeometry relative="1" as="geometry">
            <Array as="points">
              <mxPoint x="470" y="760" />
              <mxPoint x="695" y="760" />
              <mxPoint x="695" y="890" />
            </Array>
          </mxGeometry>
        </mxCell>
        <mxCell id="qqnhKsSnMTDeRwUh5UgO-1" value="Software controlador" style="shape=component;align=left;spacingLeft=36;rounded=0;shadow=0;comic=0;labelBackgroundColor=none;strokeWidth=1;fontFamily=Verdana;fontSize=12;html=1;" vertex="1" parent="1">
          <mxGeometry x="230" y="100" width="170" height="60" as="geometry" />
        </mxCell>
        <mxCell id="qqnhKsSnMTDeRwUh5UgO-2" value="" style="rounded=0;orthogonalLoop=1;jettySize=auto;html=1;endArrow=halfCircle;endFill=0;endSize=6;strokeWidth=1;sketch=0;fontSize=12;curved=1;exitX=0.103;exitY=0.53;exitDx=0;exitDy=0;exitPerimeter=0;" edge="1" target="qqnhKsSnMTDeRwUh5UgO-4" parent="1" source="qqnhKsSnMTDeRwUh5UgO-1">
          <mxGeometry relative="1" as="geometry">
            <mxPoint x="216" y="132" as="sourcePoint" />
          </mxGeometry>
        </mxCell>
        <mxCell id="qqnhKsSnMTDeRwUh5UgO-3" value="" style="rounded=0;orthogonalLoop=1;jettySize=auto;html=1;endArrow=oval;endFill=0;sketch=0;sourcePerimeterSpacing=0;targetPerimeterSpacing=0;endSize=10;fontSize=12;curved=1;exitX=1;exitY=0.5;exitDx=0;exitDy=0;" edge="1" target="qqnhKsSnMTDeRwUh5UgO-4" parent="1" source="39150e848f15840c-5">
          <mxGeometry relative="1" as="geometry">
            <mxPoint x="176" y="132" as="sourcePoint" />
          </mxGeometry>
        </mxCell>
        <mxCell id="qqnhKsSnMTDeRwUh5UgO-4" value="" style="ellipse;whiteSpace=wrap;html=1;align=center;aspect=fixed;fillColor=none;strokeColor=none;resizable=0;perimeter=centerPerimeter;rotatable=0;allowArrows=0;points=[];outlineConnect=1;" vertex="1" parent="1">
          <mxGeometry x="191" y="127" width="10" height="10" as="geometry" />
        </mxCell>
        <mxCell id="qqnhKsSnMTDeRwUh5UgO-6" value="Sensor&amp;nbsp;&lt;span style=&quot;background-color: initial;&quot;&gt;estado&lt;/span&gt;&lt;div&gt;peces&lt;/div&gt;" style="shape=component;align=left;spacingLeft=36;rounded=0;shadow=0;comic=0;labelBackgroundColor=none;strokeWidth=1;fontFamily=Verdana;fontSize=12;html=1;" vertex="1" parent="1">
          <mxGeometry x="10" y="175" width="140" height="60" as="geometry" />
        </mxCell>
        <mxCell id="qqnhKsSnMTDeRwUh5UgO-7" value="Software controlador" style="shape=component;align=left;spacingLeft=36;rounded=0;shadow=0;comic=0;labelBackgroundColor=none;strokeWidth=1;fontFamily=Verdana;fontSize=12;html=1;" vertex="1" parent="1">
          <mxGeometry x="230" y="175" width="170" height="60" as="geometry" />
        </mxCell>
        <mxCell id="qqnhKsSnMTDeRwUh5UgO-8" value="" style="rounded=0;orthogonalLoop=1;jettySize=auto;html=1;endArrow=halfCircle;endFill=0;endSize=6;strokeWidth=1;sketch=0;fontSize=12;curved=1;exitX=0.103;exitY=0.53;exitDx=0;exitDy=0;exitPerimeter=0;" edge="1" parent="1" source="qqnhKsSnMTDeRwUh5UgO-7" target="qqnhKsSnMTDeRwUh5UgO-10">
          <mxGeometry relative="1" as="geometry">
            <mxPoint x="216" y="207" as="sourcePoint" />
          </mxGeometry>
        </mxCell>
        <mxCell id="qqnhKsSnMTDeRwUh5UgO-9" value="" style="rounded=0;orthogonalLoop=1;jettySize=auto;html=1;endArrow=oval;endFill=0;sketch=0;sourcePerimeterSpacing=0;targetPerimeterSpacing=0;endSize=10;fontSize=12;curved=1;exitX=1;exitY=0.5;exitDx=0;exitDy=0;" edge="1" parent="1" source="qqnhKsSnMTDeRwUh5UgO-6" target="qqnhKsSnMTDeRwUh5UgO-10">
          <mxGeometry relative="1" as="geometry">
            <mxPoint x="176" y="207" as="sourcePoint" />
          </mxGeometry>
        </mxCell>
        <mxCell id="qqnhKsSnMTDeRwUh5UgO-10" value="" style="ellipse;whiteSpace=wrap;html=1;align=center;aspect=fixed;fillColor=none;strokeColor=none;resizable=0;perimeter=centerPerimeter;rotatable=0;allowArrows=0;points=[];outlineConnect=1;" vertex="1" parent="1">
          <mxGeometry x="191" y="202" width="10" height="10" as="geometry" />
        </mxCell>
        <mxCell id="qqnhKsSnMTDeRwUh5UgO-11" value="Sensor&amp;nbsp;&lt;span style=&quot;background-color: initial;&quot;&gt;nivel&lt;/span&gt;&lt;div&gt;algas&lt;/div&gt;" style="shape=component;align=left;spacingLeft=36;rounded=0;shadow=0;comic=0;labelBackgroundColor=none;strokeWidth=1;fontFamily=Verdana;fontSize=12;html=1;" vertex="1" parent="1">
          <mxGeometry x="10" y="250" width="140" height="60" as="geometry" />
        </mxCell>
        <mxCell id="qqnhKsSnMTDeRwUh5UgO-12" value="Software controlador" style="shape=component;align=left;spacingLeft=36;rounded=0;shadow=0;comic=0;labelBackgroundColor=none;strokeWidth=1;fontFamily=Verdana;fontSize=12;html=1;" vertex="1" parent="1">
          <mxGeometry x="230" y="250" width="170" height="60" as="geometry" />
        </mxCell>
        <mxCell id="qqnhKsSnMTDeRwUh5UgO-13" value="" style="rounded=0;orthogonalLoop=1;jettySize=auto;html=1;endArrow=halfCircle;endFill=0;endSize=6;strokeWidth=1;sketch=0;fontSize=12;curved=1;exitX=0.103;exitY=0.53;exitDx=0;exitDy=0;exitPerimeter=0;" edge="1" parent="1" source="qqnhKsSnMTDeRwUh5UgO-12" target="qqnhKsSnMTDeRwUh5UgO-15">
          <mxGeometry relative="1" as="geometry">
            <mxPoint x="216" y="282" as="sourcePoint" />
          </mxGeometry>
        </mxCell>
        <mxCell id="qqnhKsSnMTDeRwUh5UgO-14" value="" style="rounded=0;orthogonalLoop=1;jettySize=auto;html=1;endArrow=oval;endFill=0;sketch=0;sourcePerimeterSpacing=0;targetPerimeterSpacing=0;endSize=10;fontSize=12;curved=1;exitX=1;exitY=0.5;exitDx=0;exitDy=0;" edge="1" parent="1" source="qqnhKsSnMTDeRwUh5UgO-11" target="qqnhKsSnMTDeRwUh5UgO-15">
          <mxGeometry relative="1" as="geometry">
            <mxPoint x="176" y="282" as="sourcePoint" />
          </mxGeometry>
        </mxCell>
        <mxCell id="qqnhKsSnMTDeRwUh5UgO-15" value="" style="ellipse;whiteSpace=wrap;html=1;align=center;aspect=fixed;fillColor=none;strokeColor=none;resizable=0;perimeter=centerPerimeter;rotatable=0;allowArrows=0;points=[];outlineConnect=1;" vertex="1" parent="1">
          <mxGeometry x="191" y="277" width="10" height="10" as="geometry" />
        </mxCell>
        <mxCell id="qqnhKsSnMTDeRwUh5UgO-16" value="Sensor&amp;nbsp;&lt;span style=&quot;background-color: initial;&quot;&gt;cantidad&lt;/span&gt;&lt;div&gt;personal&lt;/div&gt;" style="shape=component;align=left;spacingLeft=36;rounded=0;shadow=0;comic=0;labelBackgroundColor=none;strokeWidth=1;fontFamily=Verdana;fontSize=12;html=1;" vertex="1" parent="1">
          <mxGeometry x="10" y="320" width="140" height="60" as="geometry" />
        </mxCell>
        <mxCell id="qqnhKsSnMTDeRwUh5UgO-17" value="Software controlador" style="shape=component;align=left;spacingLeft=36;rounded=0;shadow=0;comic=0;labelBackgroundColor=none;strokeWidth=1;fontFamily=Verdana;fontSize=12;html=1;" vertex="1" parent="1">
          <mxGeometry x="230" y="320" width="170" height="60" as="geometry" />
        </mxCell>
        <mxCell id="qqnhKsSnMTDeRwUh5UgO-18" value="" style="rounded=0;orthogonalLoop=1;jettySize=auto;html=1;endArrow=halfCircle;endFill=0;endSize=6;strokeWidth=1;sketch=0;fontSize=12;curved=1;exitX=0.103;exitY=0.53;exitDx=0;exitDy=0;exitPerimeter=0;" edge="1" parent="1" source="qqnhKsSnMTDeRwUh5UgO-17" target="qqnhKsSnMTDeRwUh5UgO-20">
          <mxGeometry relative="1" as="geometry">
            <mxPoint x="216" y="352" as="sourcePoint" />
          </mxGeometry>
        </mxCell>
        <mxCell id="qqnhKsSnMTDeRwUh5UgO-19" value="" style="rounded=0;orthogonalLoop=1;jettySize=auto;html=1;endArrow=oval;endFill=0;sketch=0;sourcePerimeterSpacing=0;targetPerimeterSpacing=0;endSize=10;fontSize=12;curved=1;exitX=1;exitY=0.5;exitDx=0;exitDy=0;" edge="1" parent="1" source="qqnhKsSnMTDeRwUh5UgO-16" target="qqnhKsSnMTDeRwUh5UgO-20">
          <mxGeometry relative="1" as="geometry">
            <mxPoint x="176" y="352" as="sourcePoint" />
          </mxGeometry>
        </mxCell>
        <mxCell id="qqnhKsSnMTDeRwUh5UgO-20" value="" style="ellipse;whiteSpace=wrap;html=1;align=center;aspect=fixed;fillColor=none;strokeColor=none;resizable=0;perimeter=centerPerimeter;rotatable=0;allowArrows=0;points=[];outlineConnect=1;" vertex="1" parent="1">
          <mxGeometry x="191" y="347" width="10" height="10" as="geometry" />
        </mxCell>
        <mxCell id="qqnhKsSnMTDeRwUh5UgO-22" value="obtener data" style="text;strokeColor=none;fillColor=none;html=1;align=center;verticalAlign=middle;whiteSpace=wrap;rounded=0;fontSize=7;" vertex="1" parent="1">
          <mxGeometry x="117" y="137" width="110" height="10" as="geometry" />
        </mxCell>
        <mxCell id="qqnhKsSnMTDeRwUh5UgO-23" value="obtener data" style="text;strokeColor=none;fillColor=none;html=1;align=center;verticalAlign=middle;whiteSpace=wrap;rounded=0;fontSize=7;" vertex="1" parent="1">
          <mxGeometry x="117" y="212" width="110" height="10" as="geometry" />
        </mxCell>
        <mxCell id="qqnhKsSnMTDeRwUh5UgO-24" value="obtener data" style="text;strokeColor=none;fillColor=none;html=1;align=center;verticalAlign=middle;whiteSpace=wrap;rounded=0;fontSize=7;" vertex="1" parent="1">
          <mxGeometry x="117" y="289" width="110" height="10" as="geometry" />
        </mxCell>
        <mxCell id="qqnhKsSnMTDeRwUh5UgO-25" value="obtener data" style="text;strokeColor=none;fillColor=none;html=1;align=center;verticalAlign=middle;whiteSpace=wrap;rounded=0;fontSize=7;" vertex="1" parent="1">
          <mxGeometry x="117" y="358" width="110" height="10" as="geometry" />
        </mxCell>
        <mxCell id="qqnhKsSnMTDeRwUh5UgO-27" value="&amp;lt;&amp;lt;component&amp;gt;&amp;gt;" style="text;strokeColor=none;fillColor=none;html=1;align=center;verticalAlign=middle;whiteSpace=wrap;rounded=0;fontSize=10;" vertex="1" parent="1">
          <mxGeometry x="57" y="95" width="60" height="30" as="geometry" />
        </mxCell>
        <mxCell id="qqnhKsSnMTDeRwUh5UgO-32" value="&lt;b&gt;&lt;span style=&quot;color: rgb(0, 0, 0); font-family: Helvetica; font-size: 12px; font-style: normal; font-variant-ligatures: normal; font-variant-caps: normal; letter-spacing: normal; orphans: 2; text-align: center; text-indent: 0px; text-transform: none; widows: 2; word-spacing: 0px; -webkit-text-stroke-width: 0px; white-space: normal; background-color: rgb(251, 251, 251); text-decoration-thickness: initial; text-decoration-style: initial; text-decoration-color: initial; float: none; display: inline !important;&quot;&gt;«Hardware»&lt;/span&gt;&lt;br style=&quot;border-color: var(--border-color); color: rgb(0, 0, 0); font-family: Helvetica; font-size: 12px; font-style: normal; font-variant-ligatures: normal; font-variant-caps: normal; letter-spacing: normal; orphans: 2; text-align: center; text-indent: 0px; text-transform: none; widows: 2; word-spacing: 0px; -webkit-text-stroke-width: 0px; white-space: normal; background-color: rgb(251, 251, 251); text-decoration-thickness: initial; text-decoration-style: initial; text-decoration-color: initial;&quot;&gt;&lt;span style=&quot;color: rgb(0, 0, 0); font-family: Helvetica; font-size: 12px; font-style: normal; font-variant-ligatures: normal; font-variant-caps: normal; letter-spacing: normal; orphans: 2; text-align: center; text-indent: 0px; text-transform: none; widows: 2; word-spacing: 0px; -webkit-text-stroke-width: 0px; white-space: normal; background-color: rgb(251, 251, 251); text-decoration-thickness: initial; text-decoration-style: initial; text-decoration-color: initial; float: none; display: inline !important;&quot;&gt;Boya inteligente&lt;/span&gt;&lt;/b&gt;" style="text;whiteSpace=wrap;html=1;" vertex="1" parent="1">
          <mxGeometry x="185" y="47" width="165" height="50" as="geometry" />
        </mxCell>
        <mxCell id="qqnhKsSnMTDeRwUh5UgO-33" value="&amp;lt;&amp;lt;component&amp;gt;&amp;gt;" style="text;strokeColor=none;fillColor=none;html=1;align=center;verticalAlign=middle;whiteSpace=wrap;rounded=0;fontSize=10;" vertex="1" parent="1">
          <mxGeometry x="57" y="169" width="60" height="30" as="geometry" />
        </mxCell>
        <mxCell id="qqnhKsSnMTDeRwUh5UgO-34" value="&amp;lt;&amp;lt;component&amp;gt;&amp;gt;" style="text;strokeColor=none;fillColor=none;html=1;align=center;verticalAlign=middle;whiteSpace=wrap;rounded=0;fontSize=10;" vertex="1" parent="1">
          <mxGeometry x="57" y="244" width="60" height="30" as="geometry" />
        </mxCell>
        <mxCell id="qqnhKsSnMTDeRwUh5UgO-35" value="&amp;lt;&amp;lt;component&amp;gt;&amp;gt;" style="text;strokeColor=none;fillColor=none;html=1;align=center;verticalAlign=middle;whiteSpace=wrap;rounded=0;fontSize=10;" vertex="1" parent="1">
          <mxGeometry x="57" y="314" width="60" height="30" as="geometry" />
        </mxCell>
        <mxCell id="qqnhKsSnMTDeRwUh5UgO-36" value="&amp;lt;&amp;lt;controller&amp;gt;&amp;gt;" style="text;strokeColor=none;fillColor=none;html=1;align=center;verticalAlign=middle;whiteSpace=wrap;rounded=0;fontSize=10;" vertex="1" parent="1">
          <mxGeometry x="290" y="95" width="60" height="30" as="geometry" />
        </mxCell>
        <mxCell id="qqnhKsSnMTDeRwUh5UgO-37" value="&amp;lt;&amp;lt;controller&amp;gt;&amp;gt;" style="text;strokeColor=none;fillColor=none;html=1;align=center;verticalAlign=middle;whiteSpace=wrap;rounded=0;fontSize=10;" vertex="1" parent="1">
          <mxGeometry x="290" y="172" width="60" height="30" as="geometry" />
        </mxCell>
        <mxCell id="qqnhKsSnMTDeRwUh5UgO-38" value="&amp;lt;&amp;lt;controller&amp;gt;&amp;gt;" style="text;strokeColor=none;fillColor=none;html=1;align=center;verticalAlign=middle;whiteSpace=wrap;rounded=0;fontSize=10;" vertex="1" parent="1">
          <mxGeometry x="290" y="250" width="60" height="30" as="geometry" />
        </mxCell>
        <mxCell id="qqnhKsSnMTDeRwUh5UgO-39" value="&amp;lt;&amp;lt;controller&amp;gt;&amp;gt;" style="text;strokeColor=none;fillColor=none;html=1;align=center;verticalAlign=middle;whiteSpace=wrap;rounded=0;fontSize=10;" vertex="1" parent="1">
          <mxGeometry x="290" y="317" width="60" height="30" as="geometry" />
        </mxCell>
        <mxCell id="qqnhKsSnMTDeRwUh5UgO-45" value="" style="rounded=0;orthogonalLoop=1;jettySize=auto;html=1;endArrow=halfCircle;endFill=0;endSize=6;strokeWidth=1;sketch=0;fontSize=12;curved=1;exitX=0.115;exitY=0.419;exitDx=0;exitDy=0;exitPerimeter=0;" edge="1" target="qqnhKsSnMTDeRwUh5UgO-47" parent="1" source="qqnhKsSnMTDeRwUh5UgO-40">
          <mxGeometry relative="1" as="geometry">
            <mxPoint x="500" y="132" as="sourcePoint" />
          </mxGeometry>
        </mxCell>
        <mxCell id="qqnhKsSnMTDeRwUh5UgO-46" value="" style="rounded=0;orthogonalLoop=1;jettySize=auto;html=1;endArrow=oval;endFill=0;sketch=0;sourcePerimeterSpacing=0;targetPerimeterSpacing=0;endSize=10;fontSize=12;curved=1;exitX=1;exitY=0.5;exitDx=0;exitDy=0;" edge="1" target="qqnhKsSnMTDeRwUh5UgO-47" parent="1" source="qqnhKsSnMTDeRwUh5UgO-1">
          <mxGeometry relative="1" as="geometry">
            <mxPoint x="460" y="132" as="sourcePoint" />
          </mxGeometry>
        </mxCell>
        <mxCell id="qqnhKsSnMTDeRwUh5UgO-47" value="" style="ellipse;whiteSpace=wrap;html=1;align=center;aspect=fixed;fillColor=none;strokeColor=none;resizable=0;perimeter=centerPerimeter;rotatable=0;allowArrows=0;points=[];outlineConnect=1;" vertex="1" parent="1">
          <mxGeometry x="475" y="127" width="10" height="10" as="geometry" />
        </mxCell>
        <mxCell id="qqnhKsSnMTDeRwUh5UgO-48" value="" style="group" vertex="1" connectable="0" parent="1">
          <mxGeometry x="550" y="192" width="150" height="54.5" as="geometry" />
        </mxCell>
        <mxCell id="qqnhKsSnMTDeRwUh5UgO-40" value="LORA gateway" style="shape=component;align=left;spacingLeft=36;rounded=0;shadow=0;comic=0;labelBackgroundColor=none;strokeWidth=1;fontFamily=Verdana;fontSize=12;html=1;" vertex="1" parent="qqnhKsSnMTDeRwUh5UgO-48">
          <mxGeometry y="7" width="150" height="47.5" as="geometry" />
        </mxCell>
        <mxCell id="qqnhKsSnMTDeRwUh5UgO-41" value="&amp;lt;&amp;lt;component&amp;gt;&amp;gt;" style="text;strokeColor=none;fillColor=none;html=1;align=center;verticalAlign=middle;whiteSpace=wrap;rounded=0;fontSize=10;" vertex="1" parent="qqnhKsSnMTDeRwUh5UgO-48">
          <mxGeometry x="50" width="60" height="30" as="geometry" />
        </mxCell>
        <mxCell id="qqnhKsSnMTDeRwUh5UgO-49" value="" style="rounded=0;orthogonalLoop=1;jettySize=auto;html=1;endArrow=halfCircle;endFill=0;endSize=6;strokeWidth=1;sketch=0;fontSize=12;curved=1;exitX=0;exitY=0.3;exitDx=0;exitDy=0;" edge="1" target="qqnhKsSnMTDeRwUh5UgO-51" parent="1" source="qqnhKsSnMTDeRwUh5UgO-40">
          <mxGeometry relative="1" as="geometry">
            <mxPoint x="550" y="220" as="sourcePoint" />
          </mxGeometry>
        </mxCell>
        <mxCell id="qqnhKsSnMTDeRwUh5UgO-50" value="" style="rounded=0;orthogonalLoop=1;jettySize=auto;html=1;endArrow=oval;endFill=0;sketch=0;sourcePerimeterSpacing=0;targetPerimeterSpacing=0;endSize=10;fontSize=12;curved=1;exitX=0.994;exitY=0.376;exitDx=0;exitDy=0;exitPerimeter=0;" edge="1" target="qqnhKsSnMTDeRwUh5UgO-51" parent="1" source="qqnhKsSnMTDeRwUh5UgO-7">
          <mxGeometry relative="1" as="geometry">
            <mxPoint x="460" y="197" as="sourcePoint" />
          </mxGeometry>
        </mxCell>
        <mxCell id="qqnhKsSnMTDeRwUh5UgO-51" value="" style="ellipse;whiteSpace=wrap;html=1;align=center;aspect=fixed;fillColor=none;strokeColor=none;resizable=0;perimeter=centerPerimeter;rotatable=0;allowArrows=0;points=[];outlineConnect=1;" vertex="1" parent="1">
          <mxGeometry x="475" y="192" width="10" height="10" as="geometry" />
        </mxCell>
        <mxCell id="qqnhKsSnMTDeRwUh5UgO-52" value="" style="rounded=0;orthogonalLoop=1;jettySize=auto;html=1;endArrow=halfCircle;endFill=0;endSize=6;strokeWidth=1;sketch=0;fontSize=12;curved=1;" edge="1" target="qqnhKsSnMTDeRwUh5UgO-54" parent="1" source="qqnhKsSnMTDeRwUh5UgO-40">
          <mxGeometry relative="1" as="geometry">
            <mxPoint x="500" y="280" as="sourcePoint" />
          </mxGeometry>
        </mxCell>
        <mxCell id="qqnhKsSnMTDeRwUh5UgO-53" value="" style="rounded=0;orthogonalLoop=1;jettySize=auto;html=1;endArrow=oval;endFill=0;sketch=0;sourcePerimeterSpacing=0;targetPerimeterSpacing=0;endSize=10;fontSize=12;curved=1;exitX=1;exitY=0.5;exitDx=0;exitDy=0;" edge="1" target="qqnhKsSnMTDeRwUh5UgO-54" parent="1" source="qqnhKsSnMTDeRwUh5UgO-12">
          <mxGeometry relative="1" as="geometry">
            <mxPoint x="460" y="280" as="sourcePoint" />
          </mxGeometry>
        </mxCell>
        <mxCell id="qqnhKsSnMTDeRwUh5UgO-54" value="" style="ellipse;whiteSpace=wrap;html=1;align=center;aspect=fixed;fillColor=none;strokeColor=none;resizable=0;perimeter=centerPerimeter;rotatable=0;allowArrows=0;points=[];outlineConnect=1;" vertex="1" parent="1">
          <mxGeometry x="475" y="275" width="10" height="10" as="geometry" />
        </mxCell>
        <mxCell id="qqnhKsSnMTDeRwUh5UgO-55" value="" style="rounded=0;orthogonalLoop=1;jettySize=auto;html=1;endArrow=halfCircle;endFill=0;endSize=6;strokeWidth=1;sketch=0;fontSize=12;curved=1;exitX=0.136;exitY=1;exitDx=0;exitDy=0;exitPerimeter=0;" edge="1" target="qqnhKsSnMTDeRwUh5UgO-57" parent="1" source="qqnhKsSnMTDeRwUh5UgO-40">
          <mxGeometry relative="1" as="geometry">
            <mxPoint x="570" y="250" as="sourcePoint" />
          </mxGeometry>
        </mxCell>
        <mxCell id="qqnhKsSnMTDeRwUh5UgO-56" value="" style="rounded=0;orthogonalLoop=1;jettySize=auto;html=1;endArrow=oval;endFill=0;sketch=0;sourcePerimeterSpacing=0;targetPerimeterSpacing=0;endSize=10;fontSize=12;curved=1;" edge="1" target="qqnhKsSnMTDeRwUh5UgO-57" parent="1">
          <mxGeometry relative="1" as="geometry">
            <mxPoint x="400" y="349" as="sourcePoint" />
          </mxGeometry>
        </mxCell>
        <mxCell id="qqnhKsSnMTDeRwUh5UgO-57" value="" style="ellipse;whiteSpace=wrap;html=1;align=center;aspect=fixed;fillColor=none;strokeColor=none;resizable=0;perimeter=centerPerimeter;rotatable=0;allowArrows=0;points=[];outlineConnect=1;" vertex="1" parent="1">
          <mxGeometry x="475" y="344" width="10" height="10" as="geometry" />
        </mxCell>
        <mxCell id="qqnhKsSnMTDeRwUh5UgO-59" value="" style="group" vertex="1" connectable="0" parent="1">
          <mxGeometry x="770" y="190" width="150" height="54.5" as="geometry" />
        </mxCell>
        <mxCell id="qqnhKsSnMTDeRwUh5UgO-60" value="computador" style="shape=component;align=left;spacingLeft=36;rounded=0;shadow=0;comic=0;labelBackgroundColor=none;strokeWidth=1;fontFamily=Verdana;fontSize=12;html=1;" vertex="1" parent="qqnhKsSnMTDeRwUh5UgO-59">
          <mxGeometry y="7" width="150" height="47.5" as="geometry" />
        </mxCell>
        <mxCell id="qqnhKsSnMTDeRwUh5UgO-61" value="&amp;lt;&amp;lt;component&amp;gt;&amp;gt;" style="text;strokeColor=none;fillColor=none;html=1;align=center;verticalAlign=middle;whiteSpace=wrap;rounded=0;fontSize=10;" vertex="1" parent="qqnhKsSnMTDeRwUh5UgO-59">
          <mxGeometry x="50" width="60" height="30" as="geometry" />
        </mxCell>
        <mxCell id="qqnhKsSnMTDeRwUh5UgO-62" value="" style="rounded=0;whiteSpace=wrap;html=1;fillColor=none;" vertex="1" parent="1">
          <mxGeometry x="-80" width="1710" height="460" as="geometry" />
        </mxCell>
      </root>
    </mxGraphModel>
  </diagram>
</mxfile>
